<svg xmlns='http://www.w3.org/2000/svg' version='1.1' width='794px' height='575px'><svg xmlns="http://www.w3.org/2000/svg" id="graphic" fill="currentColor" font-family="Canva Sans Variable" width="773" height="479.23333740234375" x="10.5" y="85.26666259765625"><g class="facets"><g class="fl-facets"><g class="fl-facet" transform="translate(20.33333396911621, 0)" opacity="1"><rect class="fl-facet-rect" width="752.6666669845581" height="448.23333740234375" fill="none"/><rect class="fl-facet-primary-rect" width="752.6666669845581" height="448.23333740234375" y="0" fill="none"/><g class="fl-facet-title"><rect class="fl-facet-title-bg" height="0" width="0" fill="rgb(238, 238, 238)" x="0" opacity="0"/><text class="fl-facet-title-text" font-size="14" font-weight="600" transform="translate(0, 14.700000000000001)" opacity="0" text-anchor="start"><tspan x="0" y="0" dx="0" text-anchor="start"/></text></g><g class="fl-facet-primary" transform="translate(0, 0)"><g class="fl-chart ready"><rect class="fl-chart-debug-rectangle" x="0" y="0" style="stroke-width: 1px; fill: none; display: none; stroke: red;" width="752.6666669845581" height="448.23333740234375"/><clipPath class="fl-data-clip-path" id="fl-axes-1-clip-path"><rect x="0" y="9.225" width="646.1666669845581" height="439.0083374023437"/></clipPath><clipPath class="fl-grid-clip-path" id="fl-axes-1-grid-clip-path"><rect x="-1.5" y="7.725" width="649.1666669845581" height="442.0083374023437"/></clipPath><g class="fl-chart-background"><rect class="fl-chart-fill" x="0" y="9.225" width="646.1666669845581" height="439.0083374023437" fill="none"/><image class="fl-chart-image" x="0" y="9.225" width="646.1666669845581" height="439.0083374023437" preserveAspectRatio="none"/><rect class="fl-chart-interaction" style="opacity: 0;" x="0" y="9.225" width="646.1666669845581" height="439.0083374023437"/></g><g class="fl-data-background" clip-path="url(#fl-axes-1-clip-path)"/><g class="fl-gridlines" style="pointer-events: none;" clip-path="url(#fl-axes-1-grid-clip-path)"><g class="fl-gridlines-vertical"/><g class="fl-gridlines-horizontal"><line style="shape-rendering: crispedges; opacity: 1; stroke: rgb(238, 238, 238); stroke-width: 1.5px;" x1="0" x2="646.1666669845581" y1="448.23333740234375" y2="448.23333740234375"/><line style="shape-rendering: crispedges; opacity: 1; stroke: rgb(238, 238, 238); stroke-width: 1.5px;" x1="0" x2="646.1666669845581" y1="339.3562530517578" y2="339.3562530517578"/><line style="shape-rendering: crispedges; opacity: 1; stroke: rgb(238, 238, 238); stroke-width: 1.5px;" x1="0" x2="646.1666669845581" y1="230.4791687011719" y2="230.4791687011719"/><line style="shape-rendering: crispedges; opacity: 1; stroke: rgb(238, 238, 238); stroke-width: 1.5px;" x1="0" x2="646.1666669845581" y1="121.60208435058594" y2="121.60208435058594"/><line style="shape-rendering: crispedges; opacity: 1; stroke: rgb(238, 238, 238); stroke-width: 1.5px;" x1="0" x2="646.1666669845581" y1="12.725" y2="12.725"/></g></g><g class="fl-axes" aria-hidden="true"><g class="fl-x-axes"><g class="fl-axis fl-x-axis fl-bottom-axis"><g class="fl-axis-line"><line style="shape-rendering: crispedges; stroke-linecap: square; stroke-width: 1.5px; opacity: 1; stroke: rgb(238, 238, 238);" x1="0" y1="448.23333740234375" y2="448.23333740234375" x2="646.1666669845581"/></g><g class="fl-axis-ticks"><g style="opacity: 1;" transform="translate(642.6666870117188, 448.23333740234375)"><line y2="7" style="stroke: rgb(238, 238, 238); stroke-width: 1.5px;"/><text text-anchor="end" transform="translate(16.649999618530273,19.740000000000002)" style="user-select: none; cursor: default; fill: rgb(74, 74, 74); font-size: 14px; font-weight: normal;"><tspan x="0" dy="0">2024</tspan></text></g><g style="opacity: 1;" transform="translate(596.788818359375, 448.23333740234375)"><line y2="7" style="stroke: rgb(238, 238, 238); stroke-width: 1.5px;"/><text text-anchor="end" transform="translate(16.616666793823242,19.740000000000002)" style="user-select: none; cursor: default; fill: rgb(74, 74, 74); font-size: 14px; font-weight: normal;"><tspan x="0" dy="0">2023</tspan></text></g><g style="opacity: 1;" transform="translate(550.9110107421875, 448.23333740234375)"><line y2="7" style="stroke: rgb(238, 238, 238); stroke-width: 1.5px;"/><text text-anchor="end" transform="translate(16.399999618530273,19.740000000000002)" style="user-select: none; cursor: default; fill: rgb(74, 74, 74); font-size: 14px; font-weight: normal;"><tspan x="0" dy="0">2022</tspan></text></g><g style="opacity: 1;" transform="translate(505.0331726074219, 448.23333740234375)"><line y2="7" style="stroke: rgb(238, 238, 238); stroke-width: 1.5px;"/><text text-anchor="end" transform="translate(16.28333282470703,19.740000000000002)" style="user-select: none; cursor: default; fill: rgb(74, 74, 74); font-size: 14px; font-weight: normal;"><tspan x="0" dy="0">2021</tspan></text></g><g style="opacity: 1;" transform="translate(459.0296630859375, 448.23333740234375)"><line y2="7" style="stroke: rgb(238, 238, 238); stroke-width: 1.5px;"/><text text-anchor="end" transform="translate(17.46666717529297,19.740000000000002)" style="user-select: none; cursor: default; fill: rgb(74, 74, 74); font-size: 14px; font-weight: normal;"><tspan x="0" dy="0">2020</tspan></text></g><g style="opacity: 1;" transform="translate(413.1518249511719, 448.23333740234375)"><line y2="7" style="stroke: rgb(238, 238, 238); stroke-width: 1.5px;"/><text text-anchor="end" transform="translate(16.683332443237305,19.740000000000002)" style="user-select: none; cursor: default; fill: rgb(74, 74, 74); font-size: 14px; font-weight: normal;"><tspan x="0" dy="0">2019</tspan></text></g><g style="opacity: 1;" transform="translate(367.2740173339844, 448.23333740234375)"><line y2="7" style="stroke: rgb(238, 238, 238); stroke-width: 1.5px;"/><text text-anchor="end" transform="translate(16.600000381469727,19.740000000000002)" style="user-select: none; cursor: default; fill: rgb(74, 74, 74); font-size: 14px; font-weight: normal;"><tspan x="0" dy="0">2018</tspan></text></g><g style="opacity: 1;" transform="translate(321.39617919921875, 448.23333740234375)"><line y2="7" style="stroke: rgb(238, 238, 238); stroke-width: 1.5px;"/><text text-anchor="end" transform="translate(15.550000190734863,19.740000000000002)" style="user-select: none; cursor: default; fill: rgb(74, 74, 74); font-size: 14px; font-weight: normal;"><tspan x="0" dy="0">2017</tspan></text></g><g style="opacity: 1;" transform="translate(275.3926696777344, 448.23333740234375)"><line y2="7" style="stroke: rgb(238, 238, 238); stroke-width: 1.5px;"/><text text-anchor="end" transform="translate(16.733333587646484,19.740000000000002)" style="user-select: none; cursor: default; fill: rgb(74, 74, 74); font-size: 14px; font-weight: normal;"><tspan x="0" dy="0">2016</tspan></text></g><g style="opacity: 1;" transform="translate(229.51483154296875, 448.23333740234375)"><line y2="7" style="stroke: rgb(238, 238, 238); stroke-width: 1.5px;"/><text text-anchor="end" transform="translate(16.5,19.740000000000002)" style="user-select: none; cursor: default; fill: rgb(74, 74, 74); font-size: 14px; font-weight: normal;"><tspan x="0" dy="0">2015</tspan></text></g><g style="opacity: 1;" transform="translate(183.6370086669922, 448.23333740234375)"><line y2="7" style="stroke: rgb(238, 238, 238); stroke-width: 1.5px;"/><text text-anchor="end" transform="translate(16.600000381469727,19.740000000000002)" style="user-select: none; cursor: default; fill: rgb(74, 74, 74); font-size: 14px; font-weight: normal;"><tspan x="0" dy="0">2014</tspan></text></g><g style="opacity: 1;" transform="translate(137.75917053222656, 448.23333740234375)"><line y2="7" style="stroke: rgb(238, 238, 238); stroke-width: 1.5px;"/><text text-anchor="end" transform="translate(16.433332443237305,19.740000000000002)" style="user-select: none; cursor: default; fill: rgb(74, 74, 74); font-size: 14px; font-weight: normal;"><tspan x="0" dy="0">2013</tspan></text></g><g style="opacity: 1;" transform="translate(91.75565338134766, 448.23333740234375)"><line y2="7" style="stroke: rgb(238, 238, 238); stroke-width: 1.5px;"/><text text-anchor="end" transform="translate(16.21666717529297,19.740000000000002)" style="user-select: none; cursor: default; fill: rgb(74, 74, 74); font-size: 14px; font-weight: normal;"><tspan x="0" dy="0">2012</tspan></text></g><g style="opacity: 1;" transform="translate(45.87782669067383, 448.23333740234375)"><line y2="7" style="stroke: rgb(238, 238, 238); stroke-width: 1.5px;"/><text text-anchor="end" transform="translate(16.100000381469727,19.740000000000002)" style="user-select: none; cursor: default; fill: rgb(74, 74, 74); font-size: 14px; font-weight: normal;"><tspan x="0" dy="0">2011</tspan></text></g><g style="opacity: 1;" transform="translate(0,448.23333740234375)"><line y2="7" style="stroke: rgb(238, 238, 238); stroke-width: 1.5px;"/><text text-anchor="end" transform="translate(17.149999618530273,19.740000000000002)" style="user-select: none; cursor: default; fill: rgb(74, 74, 74); font-size: 14px; font-weight: normal;"><tspan x="0" dy="0">2010</tspan></text></g></g><g class="fl-axis-title"/></g><g class="fl-axis fl-x-axis fl-top-axis"><g class="fl-axis-line"/><g class="fl-axis-ticks"/><g class="fl-axis-title"/></g></g><g class="fl-y-axes"><g class="fl-axis fl-y-axis fl-left-axis"><g class="fl-axis-line"><line style="shape-rendering: crispedges; stroke-linecap: square; stroke-width: 1.5px; opacity: 1; stroke: rgb(238, 238, 238);" x1="0" x2="0" y1="448.23333740234375" y2="9.225"/></g><g class="fl-axis-ticks"><g style="opacity: 1;" transform="translate(0,448.23333740234375)"><line x2="-7" style="stroke: rgb(238, 238, 238); stroke-width: 1.5px;"/><text text-anchor="end" transform="translate(-10.5,4.62)" style="user-select: none; cursor: default; fill: rgb(74, 74, 74); font-size: 14px; font-weight: normal;"><tspan x="0" dy="0">0</tspan></text></g><g style="opacity: 1;" transform="translate(0, 12.725000381469727)"><line x2="-7" style="stroke: rgb(238, 238, 238); stroke-width: 1.5px;"/><text text-anchor="end" transform="translate(-10.5,4.62)" style="user-select: none; cursor: default; fill: rgb(74, 74, 74); font-size: 14px; font-weight: normal;"><tspan x="0" dy="0">8</tspan></text></g><g style="opacity: 1;" transform="translate(0, 121.60208129882812)"><line x2="-7" style="stroke: rgb(238, 238, 238); stroke-width: 1.5px;"/><text text-anchor="end" transform="translate(-10.5,4.62)" style="user-select: none; cursor: default; fill: rgb(74, 74, 74); font-size: 14px; font-weight: normal;"><tspan x="0" dy="0">6</tspan></text></g><g style="opacity: 1;" transform="translate(0, 230.4791717529297)"><line x2="-7" style="stroke: rgb(238, 238, 238); stroke-width: 1.5px;"/><text text-anchor="end" transform="translate(-10.5,4.62)" style="user-select: none; cursor: default; fill: rgb(74, 74, 74); font-size: 14px; font-weight: normal;"><tspan x="0" dy="0">4</tspan></text></g><g style="opacity: 1;" transform="translate(0, 339.35626220703125)"><line x2="-7" style="stroke: rgb(238, 238, 238); stroke-width: 1.5px;"/><text text-anchor="end" transform="translate(-10.5,4.62)" style="user-select: none; cursor: default; fill: rgb(74, 74, 74); font-size: 14px; font-weight: normal;"><tspan x="0" dy="0">2</tspan></text></g></g><g class="fl-axis-title"/></g><g class="fl-axis fl-y-axis fl-right-axis"><g class="fl-axis-line"/><g class="fl-axis-ticks"/><g class="fl-axis-title"/></g></g></g><g class="fl-data-foreground" clip-path="url(#fl-axes-1-clip-path)"/></g></g></g></g></g><g class="annotations below"/><g id="areas"/><g id="lines"><g class="series"><clipPath id="clip-0-0"><rect width="642.6666669845581" x="0" y="6.424999999999999" height="444.60833740234375"/></clipPath><path class="outline" opacity="1" pointer-events="none" fill="none" stroke="#ffffff" stroke-width="4.800000000000001" transform="translate(20.333333015441895,0)" clip-path="url(#clip-0-0)" clip-path-id="0-0" d="M0,154.265C15.293,155.309,30.585,156.352,45.878,159.709C61.17,163.066,76.463,174.407,91.756,174.407C107.09,174.407,122.425,163.974,137.759,160.798C153.052,157.63,168.344,158.983,183.637,155.354C198.93,151.725,214.222,137.389,229.515,137.389C244.807,137.389,260.1,140.656,275.393,140.656C290.727,140.656,306.062,128.679,321.396,128.679C336.689,128.679,351.981,130.857,367.274,130.857C382.567,130.857,397.859,129.949,413.152,128.135C428.444,126.32,443.737,117.514,459.03,112.892C474.364,108.257,489.699,104.277,505.033,100.371C520.326,96.476,535.618,89.483,550.911,89.483C566.204,89.483,581.496,92.931,596.789,99.827C612.081,106.722,627.374,128.316,642.667,149.91"/><path class="line" opacity="1" pointer-events="none" fill="none" stroke="#4328E7" stroke-width="2.8000000000000003" transform="translate(20.333333015441895,0)" clip-path="url(#clip-0-0)" clip-path-id="0-0" d="M0,154.265C15.293,155.309,30.585,156.352,45.878,159.709C61.17,163.066,76.463,174.407,91.756,174.407C107.09,174.407,122.425,163.974,137.759,160.798C153.052,157.63,168.344,158.983,183.637,155.354C198.93,151.725,214.222,137.389,229.515,137.389C244.807,137.389,260.1,140.656,275.393,140.656C290.727,140.656,306.062,128.679,321.396,128.679C336.689,128.679,351.981,130.857,367.274,130.857C382.567,130.857,397.859,129.949,413.152,128.135C428.444,126.32,443.737,117.514,459.03,112.892C474.364,108.257,489.699,104.277,505.033,100.371C520.326,96.476,535.618,89.483,550.911,89.483C566.204,89.483,581.496,92.931,596.789,99.827C612.081,106.722,627.374,128.316,642.667,149.91"/></g><g class="fl-label" transform="translate(668.5,149.91012628173826)" font-size="14" font-weight="700" opacity="1" aria-hidden="true"><path fill="none" d="M0,0 L3.5,0 L3.5,0 L3.5,0" stroke-width="0.075rem" stroke="#aaaaaa"/><text class="bg" transform="translate(7,-1.6799999999999997)" text-anchor="start"><tspan x="0" fill="none" stroke="rgb(255, 255, 255)" stroke-width="3.5" dy="0">Share of Black</tspan><tspan x="0" fill="none" stroke="rgb(255, 255, 255)" stroke-width="3.5" dy="12.6px">students</tspan></text><text class="fg" transform="translate(7,-1.6799999999999997)" text-anchor="start"><tspan x="0" fill="rgb(67, 40, 231)" dy="0">Share of Black</tspan><tspan x="0" fill="rgb(67, 40, 231)" dy="12.6px">students</tspan></text></g></g><g id="data-points"><g class="series" transform="translate(20.333333015441895,0)" clip-path="url(#clip-data-points-0)"><clipPath id="clip-data-points-0"><rect x="-3.5" y="6.424999999999999" height="441.80833740234374" width="649.6666669845581"/></clipPath><path class="data-point" visibility="visible" fill="#4328E7" data-type="point" transform="translate(0, 0)" d="M-3.5,154.26520965576168A3.5,3.5,0,1,1,3.5,154.26520965576168A3.5,3.5,0,1,1,-3.5,154.26520965576168Z" opacity="1" tabindex="0" role="img" aria-roledescription="data point" id="point-0-0" aria-label="Share of Black students, 2010: 5.4"/><path class="data-point" visibility="visible" fill="#4328E7" data-type="point" transform="translate(0, 0)" d="M42.37782778199955,159.70906387329103A3.5,3.5,0,1,1,49.37782778199955,159.70906387329103A3.5,3.5,0,1,1,42.37782778199955,159.70906387329103Z" opacity="1" tabindex="0" role="img" aria-roledescription="data point" id="point-0-1" aria-label="Share of Black students, 2011: 5.3"/><path class="data-point" visibility="visible" fill="#4328E7" data-type="point" transform="translate(0, 0)" d="M88.2556555639991,174.4074702606201A3.5,3.5,0,1,1,95.2556555639991,174.4074702606201A3.5,3.5,0,1,1,88.2556555639991,174.4074702606201Z" opacity="1" tabindex="0" role="img" aria-roledescription="data point" id="point-0-2" aria-label="Share of Black students, 2012: 5.03"/><path class="data-point" visibility="visible" fill="#4328E7" data-type="point" transform="translate(0, 0)" d="M134.25917602485345,160.79783471679687A3.5,3.5,0,1,1,141.25917602485345,160.79783471679687A3.5,3.5,0,1,1,134.25917602485345,160.79783471679687Z" opacity="1" tabindex="0" role="img" aria-roledescription="data point" id="point-0-3" aria-label="Share of Black students, 2013: 5.28"/><path class="data-point" visibility="visible" fill="#4328E7" data-type="point" transform="translate(0, 0)" d="M180.137003806853,155.35398049926758A3.5,3.5,0,1,1,187.137003806853,155.35398049926758A3.5,3.5,0,1,1,180.137003806853,155.35398049926758Z" opacity="1" tabindex="0" role="img" aria-roledescription="data point" id="point-0-4" aria-label="Share of Black students, 2014: 5.38"/><path class="data-point" visibility="visible" fill="#4328E7" data-type="point" transform="translate(0, 0)" d="M226.01483158885253,137.3892615814209A3.5,3.5,0,1,1,233.01483158885253,137.3892615814209A3.5,3.5,0,1,1,226.01483158885253,137.3892615814209Z" opacity="1" tabindex="0" role="img" aria-roledescription="data point" id="point-0-5" aria-label="Share of Black students, 2015: 5.71"/><path class="data-point" visibility="visible" fill="#4328E7" data-type="point" transform="translate(0, 0)" d="M271.8926593708521,140.65557411193845A3.5,3.5,0,1,1,278.8926593708521,140.65557411193845A3.5,3.5,0,1,1,271.8926593708521,140.65557411193845Z" opacity="1" tabindex="0" role="img" aria-roledescription="data point" id="point-0-6" aria-label="Share of Black students, 2016: 5.65"/><path class="data-point" visibility="visible" fill="#4328E7" data-type="point" transform="translate(0, 0)" d="M317.8961798317065,128.67909483337402A3.5,3.5,0,1,1,324.8961798317065,128.67909483337402A3.5,3.5,0,1,1,317.8961798317065,128.67909483337402Z" opacity="1" tabindex="0" role="img" aria-roledescription="data point" id="point-0-7" aria-label="Share of Black students, 2017: 5.87"/><path class="data-point" visibility="visible" fill="#4328E7" data-type="point" transform="translate(0, 0)" d="M363.774007613706,130.85663652038573A3.5,3.5,0,1,1,370.774007613706,130.85663652038573A3.5,3.5,0,1,1,363.774007613706,130.85663652038573Z" opacity="1" tabindex="0" role="img" aria-roledescription="data point" id="point-0-8" aria-label="Share of Black students, 2018: 5.83"/><path class="data-point" visibility="visible" fill="#4328E7" data-type="point" transform="translate(0, 0)" d="M409.6518353957056,128.13470941162112A3.5,3.5,0,1,1,416.6518353957056,128.13470941162112A3.5,3.5,0,1,1,409.6518353957056,128.13470941162112Z" opacity="1" tabindex="0" role="img" aria-roledescription="data point" id="point-0-9" aria-label="Share of Black students, 2019: 5.88"/><path class="data-point" visibility="visible" fill="#4328E7" data-type="point" transform="translate(0, 0)" d="M455.52966317770506,112.89191760253905A3.5,3.5,0,1,1,462.52966317770506,112.89191760253905A3.5,3.5,0,1,1,455.52966317770506,112.89191760253905Z" opacity="1" tabindex="0" role="img" aria-roledescription="data point" id="point-0-10" aria-label="Share of Black students, 2020: 6.16"/><path class="data-point" visibility="visible" fill="#4328E7" data-type="point" transform="translate(0, 0)" d="M501.5331836385594,100.37105290222169A3.5,3.5,0,1,1,508.5331836385594,100.37105290222169A3.5,3.5,0,1,1,501.5331836385594,100.37105290222169Z" opacity="1" tabindex="0" role="img" aria-roledescription="data point" id="point-0-11" aria-label="Share of Black students, 2021: 6.39"/><path class="data-point" visibility="visible" fill="#4328E7" data-type="point" transform="translate(0, 0)" d="M547.411011420559,89.48334446716309A3.5,3.5,0,1,1,554.411011420559,89.48334446716309A3.5,3.5,0,1,1,547.411011420559,89.48334446716309Z" opacity="1" tabindex="0" role="img" aria-roledescription="data point" id="point-0-12" aria-label="Share of Black students, 2022: 6.59"/><path class="data-point" visibility="visible" fill="#4328E7" data-type="point" transform="translate(0, 0)" d="M593.2888392025585,99.82666748046873A3.5,3.5,0,1,1,600.2888392025585,99.82666748046873A3.5,3.5,0,1,1,593.2888392025585,99.82666748046873Z" opacity="1" tabindex="0" role="img" aria-roledescription="data point" id="point-0-13" aria-label="Share of Black students, 2023: 6.4"/><path class="data-point" visibility="visible" fill="#4328E7" data-type="point" transform="translate(0, 0)" d="M639.1666669845581,149.91012628173826A3.5,3.5,0,1,1,646.1666669845581,149.91012628173826A3.5,3.5,0,1,1,639.1666669845581,149.91012628173826Z" opacity="1" tabindex="0" role="img" aria-roledescription="data point" id="point-0-14" aria-label="Share of Black students, 2024: 5.48"/></g></g><g id="lines-secondary"/><g id="data-points-secondary"/><g id="data-point-labels"><g class="series" transform="translate(20.333333015441895,0)" clip-path="url(#clip-data-points-0)"/></g><g id="stack-labels"/><g class="annotations above"><g id="axes-highlights"><g class="axis-highlights-facet"><defs><pattern class="fl-pattern-auto" width="4" height="4" patternUnits="userSpaceOnUse" id="fl-pattern-diagonal-x"><path stroke-width="1" shape-rendering="auto" stroke-linecap="square" d="M 0 4 l 4 -4 M -1 1 l 2 -2 M 3 5 l 2 -2" style="stroke: currentcolor;"/></pattern><pattern class="fl-pattern-auto" width="4" height="4" patternUnits="userSpaceOnUse" id="fl-pattern-dots-x"><path stroke-width="1" shape-rendering="auto" stroke-linecap="square" d="M 1 2 A 1.2 1.2 0 1 1 1 2.1 Z" style="fill: currentcolor;"/></pattern><pattern class="fl-pattern-auto" width="4" height="4" patternUnits="userSpaceOnUse" id="fl-pattern-grid-x"><path stroke-width="1" shape-rendering="auto" stroke-linecap="square" d="M 2 0 l 0 4 M 0 2 l 4 0" style="stroke: currentcolor;"/></pattern><pattern class="fl-pattern-auto" width="4" height="4" patternUnits="userSpaceOnUse" id="fl-pattern-diagonal-y"><path stroke-width="1" shape-rendering="auto" stroke-linecap="square" d="M 0 4 l 4 -4 M -1 1 l 2 -2 M 3 5 l 2 -2" style="stroke: currentcolor;"/></pattern><pattern class="fl-pattern-auto" width="4" height="4" patternUnits="userSpaceOnUse" id="fl-pattern-grid-y"><path stroke-width="1" shape-rendering="auto" stroke-linecap="square" d="M 2 0 l 0 4 M 0 2 l 4 0" style="stroke: currentcolor;"/></pattern><pattern class="fl-pattern-auto" width="4" height="4" patternUnits="userSpaceOnUse" id="fl-pattern-dots-y"><path stroke-width="1" shape-rendering="auto" stroke-linecap="square" d="M 1 2 A 1.2 1.2 0 1 1 1 2.1 Z" style="fill: currentcolor;"/></pattern></defs><g class="axis-highlights" style="opacity: 1;" transform="translate(20.33333396911621, 0)"/></g></g></g></svg><svg xmlns="http://www.w3.org/2000/svg" id="fl-layout-svg-screenshot-container" class="flourish-screenshot-svg-container" style="left: 0px; top: 0px; width: 794px; height: 575px; position: absolute;" x="0" y="0"><text style="dominant-baseline: text-before-edge;" x="10.5px" y="10.5px" font-family="Canva Sans Variable" font-size="28px" font-weight="700" fill="rgb(51, 51, 51)"><tspan dy="0" dx="0" x="10.5" opacity="1">Average share of Black students</tspan></text><text style="dominant-baseline: text-before-edge;" x="10.5px" y="44.100006103515625px" font-family="Canva Sans Variable" font-size="19.6px" font-weight="400" fill="rgb(51, 51, 51)"><tspan dy="0" dx="0" x="10.5" opacity="1"/></text><text style="dominant-baseline: text-before-edge;" x="10.5px" y="44.100006103515625px" font-family="Canva Sans Variable" font-size="16.8px" font-weight="400" fill="rgb(51, 51, 51)"><tspan dy="7" dx="0" x="10.5" opacity="1">Among domestic first-year students at 59 colleges</tspan></text><text style="dominant-baseline: text-before-edge;" x="0px" y="0px" font-family="Canva Sans Variable" font-size="14px" font-weight="400" fill="rgb(51, 51, 51)"><tspan dy="0" dx="0" x="0" opacity="1"/></text></svg></svg>