<?xml version="1.0" encoding="utf-8"?>
<!-- Generator: Adobe Illustrator 28.1.0, SVG Export Plug-In . SVG Version: 6.00 Build 0)  -->
<svg version="1.1" id="Layer_1" xmlns="http://www.w3.org/2000/svg" xmlns:xlink="http://www.w3.org/1999/xlink" x="0px" y="0px"
	 viewBox="0 0 708 773" style="enable-background:new 0 0 708 773;" xml:space="preserve">
<g transform="translate(0.000000,773.000000) scale(0.100000,-0.100000)">
	<path d="M3175,7295c-77-17-148-41-206-71c-26-13-49-20-53-17c-3,4-6,0-6-7s-18-28-40-47c-95-81-132-238-94-399c10-44,18-82,19-86
		c0-4-24-19-52-35c-108-58-197-149-265-271c-42-75-99-241-122-353c-16-79-42-396-33-405c3-3,12,19,21,49s23,61,33,68c9,8,14,10,11,4
		c-3-5-24-70-47-143c-40-127-43-133-79-151c-37-18-113-44-164-55c-34-8-94-59-114-98c-12-23-19-27-39-22c-28,7-150-21-183-43
		c-72-45-66-190,10-295c11-15,3-27-55-86c-36-38-71-81-76-95c-6-15-15-75-21-134c-19-191-88-595-130-759c-28-111-54-187-86-252
		c-35-71-51-119-66-200c-22-118-103-384-180-592c-48-130-249-571-368-810c-91-182-276-703-334-940c-67-273-98-566-79-740
		c7-70,10-75,33-78l25-3l1,213c1,246,22,419,81,658c74,300,176,571,454,1203c61,139,133,302,159,362c72,168,195,544,225,690
		c19,93,41,162,75,240c88,198,144,462,214,1012c8,62,18,119,23,127c4,8,39,47,78,87c61,63,75,73,112,77c23,2,49,2,58-2
		c14-5,14-9,0-42c-17-42-19-52-6-38c12,12,67,151,93,234c26,82,53,137,76,149c9,5,80,26,157,46c134,36,143,37,250,30
		c169-11,209-32,175-95c-29-54-101-71-210-50c-50,9-57,8-129-26c-42-21-83-40-91-44s-19-27-26-51c-6-24-21-68-34-97
		c-22-51-22-57-9-105c16-62,16-165-1-227c-7-25-13-117-15-205c-1-88-5-176-9-195l-6-35l16,34c9,21,18,76,21,143c4,67,10,108,17,109
		c23,3,42-3,58-18c24-21,88-18,136,6c25,13,76,61,129,122c97,113,197,202,273,243l50,27l60-46c42-32,60-53,60-69
		c0-21-62-118-133-211c-17-22-81-93-142-157c-70-73-153-176-225-279c-133-191-205-282-313-395c-55-58-100-121-153-211
		c-90-154-129-252-149-375c-9-51-27-156-40-233c-27-151-64-436-90-685c-41-399-75-759-85-905c-5-88-13-187-16-220c-3-39-2-55,4-45
		c5,8,12,60,16,115c3,55,13,161,21,235c68,620,91,813,156,1305c34,266,87,582,100,607c13,23,28,26,204,32c113,4,188,13,305,37
		c216,44,211,44,242,19c32-24,33-11-19-240c-68-295-145-494-383-975c-65-132-137-294-160-360c-22-66-44-127-48-135
		c-14-29-18,302-4,390c17,114,13,138-15,85l-21-40l-15,55c-8,30-18,69-22,85c-16,67-16-6,1-193c23-260,23-456,0-542
		c-9-36-81-227-160-425s-180-454-226-570c-45-116-84-216-87-222c-3-7,1-13,8-13c9,0,74,156,178,425c91,234,168,425,173,425
		s8-148,7-332c-1-183,2-375,6-425l8-93h1813h1813l10,52c24,122,40,273,46,418c4,85,15,205,26,265c21,118,24,223,10,320
		c-7,45-4,97,10,204c10,79,19,151,19,160c-1,37-18-17-36-111c-10-54-21-98-24-98c-4,0-37,116-73,258c-37,141-126,455-197,696
		l-130,439l30,45c16,24,36,66,45,93c18,53,22,54,75,39c19-6,100-24,180-40c239-47,420-116,545-204c82-59,209-196,240-261
		c50-101,55-155,62-655c6-492,5-514-48-1023c-12-121-19-261-19-393c0-194,1-204,19-204c19,0,19,10,18,237c-1,146,3,261,11,298
		c30,156,56,483,56,710c-1,264-21,822-34,908c-18,117-100,243-227,352c-136,116-318,194-583,250c-91,19-189,42-216,50l-50,15l7,52
		c4,29,8,86,8,127l1,73l41-60c33-51,119-136,119-119c0,3-16,32-34,64c-68,113-106,304-106,523c0,136,11,166,30,83
		c33-150,97-298,156-360c51-54,54-38,9,50c-77,148-115,339-114,567c0,135,10,151,25,40c4-28,10-53,14-55c15-9,22,288,10,435
		c-11,144-52,442-70,510c-18,65-9,65,17,0c14-36,36-114,50-175c14-60,27-112,29-114c9-10,2,46-31,234c-27,151-49,239-92,364
		c-128,379-300,806-426,1057c-109,216-274,412-473,560c-57,42-102,79-101,81c7,7,90-27,183-75c104-54,101-38-6,32
		c-133,89-285,149-417,165c-59,7-88,18-160,60c-158,91-322,131-471,115l-77-8l115-7c161-10,310-54,385-113c19-16,19-16-10-9
		c-60,16-266,7-337-14c-38-11-68-16-68-12c0,5,3,9,8,9c4,0,12,16,18,35s9,35,7,35c-3,0-18-13-33-30c-21-22-37-30-62-30
		c-51,0-147-36-200-75c-26-19-68-61-95-94c-26-33-51-60-55-60c-5-1-8,11-8,27c-1,15-7,41-14,57c-13,30-13,29-21-35
		c-12-102-24-106-25-9c0,48-7,108-15,135l-15,49l41,37c52,48,131,86,234,114c69,19,74,23,40,22C3253,7308,3208,7302,3175,7295z
		 M3395,7100c-7-12-73-57-139-95c-45-26-48-27-37-7c13,24,84,75,134,97C3391,7112,3403,7113,3395,7100z M2946,7075
		c11-42-24-247-57-333c-9-24-11-25-20-9c-17,29-22,149-10,207c13,61,57,160,72,160C2936,7100,2942,7089,2946,7075z M4055,7050
		c103-26,211-78,294-140c74-54,335-330,408-430c90-124,107-162,340-795c119-323,140-385,173-515c32-128,73-346,68-362
		c-2-5-16,46-31,114c-33,147-88,350-94,345c-2-2,12-89,31-193s42-241,50-304c9-63,19-133,22-155c9-73-6-29-25,69
		c-23,115-35,137-27,46c15-158,37-483,33-487c-3-2-8,20-12,49c-10,68-21,99-28,78c-7-18-37-718-38-875c-1-91-3-105-12-80
		c-7,20-11,277-13,794c-1,420-5,789-9,820c-26,218-152,600-242,733c-16,24-33,50-38,58c-16,29,58-46,97-98c22-30,42-51,45-49
		c8,9-217,449-272,532s-150,187-240,263l-50,42l40-15c43-17,137-75,172-108c40-36,35-11-11,49c-160,214-440,396-690,448
		c-87,19-99,31-21,22c97-12,192-36,304-77c57-22,106-38,108-36c9,10-93,90-154,120c-97,49-206,77-335,85l-113,8l90,14
		c73,12,84,16,60,21c-91,20-341,1-460-35c-27-8-51-14-53-11c-7,6,157,55,237,70C3762,7085,3949,7078,4055,7050z M3623,6759
		c40-11,119-43,177-70c102-49,321-187,336-212c6-9,5-9-7-1c-22,18-180,96-185,92c-2-2,45-36,104-76c137-91,227-163,325-260
		c73-71,147-160,147-177c0-3-24,13-52,38c-98,83-238,178-238,163c0-3,52-48,115-101c121-102,179-163,247-260l43-60l-90,91
		c-91,91-271,234-295,234c-7,0,41-57,106-127l119-127l-85,64c-138,105-280,231-360,320c-161,178-197,214-264,261c-38,27-74,49-80,49
		s17-25,52-56c87-77,99-106,20-48c-136,100-339,174-477,174c-33,0-34-1-15-15c17-13,12-14-56-15c-42,0-102-7-134-15
		c-66-17-161-59-114-50c15,3,56,8,90,10l63,5l-52-19c-138-51-255-139-328-245c-21-31-40-56-41-56c-2,0,0,17,3,38c6,34,5,36-11,22
		c-23-18-27-29-91-250c-30-102-65-219-79-260l-25-75l6,58c3,31,3,57,1,57c-3,0-22-43-43-95c-21-53-40-94-42-92c-2,3,7,45,21,93
		c42,147,74,294,64,294c-5,0-25-34-45-75c-19-41-39-78-43-80c-20-12,36,150,90,260c61,127,114,206,214,319c84,95,147,137,273,182
		c88,31,103,39,83,44s-8,11,55,26c85,20,276,26,369,11c58-8,53,1-12,25l-47,18l58-6C3525,6781,3583,6770,3623,6759z M3418,6485
		c38-8,94-25,124-38c123-55,518-300,568-353l35-37l-55,40c-73,53-137,93-306,191c-159,93-298,156-388,177c-93,22-247,18-395-10
		c-14-3-8,2,14,10C3102,6499,3306,6509,3418,6485z M3560,6191c80-105,110-130,75-62c-23,45-5,37,34-14c45-61,151-139,231-171
		c120-47,214-121,334-258l51-60l-95,70c-140,104-264,179-360,219c-140,59-169,77-236,147c-45,48-77,95-109,161c-47,97-58,139-27,101
		C3467,6312,3513,6252,3560,6191z M3225,6190c60-188,197-361,366-460c103-62,98-77-12-31c-60,25-68,27-53,10c35-39,156-88,278-114
		c109-22,278-87,264-100c-3-3-31,4-64,16c-112,39-274,62-274,39c0-5,8-10,18-10c32,0,165-37,212-59c49-23,38-23-75,2
		c-38,9-132,23-207,31c-155,18-212,37-308,102c-61,41-167,131-145,122c6-2,48-22,95-45c133-65,177-65,55-1c-156,83-267,206-330,365
		c-29,72-41,128-27,119c6-3,12,3,14,15c2,14,18-14,48-81c41-95,71-143,55-89c-4,13,16-10,45-51c61-87,148-190,161-190
		c5,0-2,17-15,38c-41,65-83,154-115,245c-17,48-28,87-26,87c3,0,13-17,24-37c25-47,25-46,2,61C3190,6270,3197,6278,3225,6190z
		 M4007,6019c42-27,147-85,233-129c167-84,222-121,308-204c64-61,94-107,39-59c-96,84-206,146-375,209c-129,48-201,89-277,157
		c-51,45-155,186-155,209c0,6,34-22,76-61C3897,6101,3966,6046,4007,6019z M3348,6143c42-65,113-144,165-185c42-33,42-33,24-5
		c-33,51-77,128-98,170l-20,42l21-25c12-14,44-52,71-86c70-85,131-128,267-189c175-78,237-111,313-167c75-54,91-72,31-34
		c-87,55-252,126-291,126c-3,0,39-26,94-58c103-59,220-136,229-149c2-5-48,18-112,49s-187,80-272,108c-178,60-229,88-306,174
		c-58,64-174,276-151,276C3315,6190,3331,6169,3348,6143z M3048,5856c18-24,32-49,32-55c0-18,133-143,213-201c42-30,76-61,77-67
		c0-13,71-51,183-98c37-15,66-29,64-31s-48,1-102,7c-69,7-137,23-219,51c-109,37-127,40-191,35c-39-3-86-12-105-21l-35-16l31,3
		c17,2,36-3,43-10c6-7,33-14,59-14l47-2l-55-7c-30-5-97-8-149-9l-94-1l7,61c3,34,6,73,6,85c0,38,16,28,36-22l19-45v113
		c0,86,4,120,16,142l17,30l17-60c18-60,30-60,23,2c-5,43,2,43,26,0c19-36,100-122,129-138c10-5-3,17-29,49c-54,66-100,159-110,221
		C2996,5912,3008,5912,3048,5856z M2798,5528c20-20,14-65-10-82c-18-13-55-16-195-16c-109,0-173-4-173-10s37-10,90-10
		c58,0,106-6,137-17c26-9,68-17,93-17c44-1,45-1,48-37c3-31-2-40-27-59c-37-26-47-26-136-6c-38,9-108,19-155,23c-76,5-101,2-235-31
		c-130-32-154-41-183-69l-33-32l-18,24c-23,30-15,60,30,114c24,30,45,41,116,62c48,15,121,44,162,65c108,54,240,90,326,89
		c39-1,81,4,95,9C2764,5542,2784,5542,2798,5528z M4430,5419c27-6,50-14,50-19c0-4-71-10-157-13c-250-9-394-51-435-127
		c-35-68-16-187,52-322c28-56,35-78,25-78c-21,0-58,70-111,214c-54,145-77,172-144,162c-47-7-70-37-70-94c0-48-38-182-52-182
		c-11,0-10,3,8,74c31,118,0,232-75,274c-84,47-288,68-481,49c-105-10-99,6,11,29c100,22,269,13,415-20c248-56,329-57,479-6
		C4128,5424,4307,5445,4430,5419z M4753,5329c1-24-2-45-8-47c-6-1-11,23-13,55c-2,43,0,55,8,47C4746,5378,4752,5353,4753,5329z
		 M4710,5134c-15-99-19-114-32-114c-15,0-3,108,17,156C4717,5229,4722,5213,4710,5134z M1795,5163c-3-10-11-39-17-65
		c-6-27-16-48-21-48c-13,0-3,96,13,115C1787,5185,1804,5184,1795,5163z M1887,5112c6-21,7-58,4-83c-5-36-10-45-28-47
		c-19-3-23,1-23,22c0,14,5,28,11,32c7,4,8,20,4,41c-6,36,1,73,14,73C1874,5150,1882,5133,1887,5112z M3794,5107c12-12,35-54,49-92
		c15-39,52-119,82-180c30-60,55-115,55-123c0-7,4-10,10-7c5,3,7,19,4,35l-6,29l63-27c60-25,73-27,219-27c139,0,161,3,213,23
		c31,13,81,44,110,68l52,45l3-125c3-151-11-202-114-409c-111-221-223-353-401-471c-134-87-163-97-309-103c-140-6-163-1-273,64
		c-250,148-452,375-568,639l-55,125l28,65c15,35,30,64,34,64c3,0,31-7,61-16c103-31,300-14,394,33c16,8,45,27,64,41
		c29,22,33,23,26,6c-17-37-10-92,15-119c34-36,47-31,15,7c-33,39-31,60,18,178c19,47,47,120,62,163C3690,5122,3741,5160,3794,5107z
		 M2276,4964c22-103,15-204-28-369c-30-114-37-130-56-133c-27-4-27,5-7,111c18,95,19,152,3,228c-11,53-10,62,16,135
		c15,44,30,85,32,92C2245,5058,2260,5034,2276,4964z M4917,4848c-3-92-12-156-27-208c-30-105-101-247-150-300l-41-45l21,43
		c11,23,17,42,12,42c-4,0-42-42-84-92c-102-124-227-254-198-208c139,229,204,359,260,515c18,50,36,99,40,110c5,11,6-13,3-55
		c-6-104,10-74,47,86c16,69,32,129,36,133c4,3,4-34,0-84c-5-59-4-87,2-80c15,15,51,132,64,208c7,37,14,67,16,67
		C4921,4980,4920,4920,4917,4848z M5114,4735c23-257,22-434-6-617c-12-83-23-147-25-142s1,77,5,159c5,83,7,152,5,154
		c-6,9-15-9-49-100c-33-89-34-91-29-44c18,173,45,487,56,645C5086,5003,5091,4996,5114,4735z M4664,4925c11-29-119-150-181-169
		c-18-6-23-3-23,11c0,11,16,27,43,41c23,12,67,47,97,76c30,30,56,55,56,55C4657,4940,4661,4933,4664,4925z M2593,3993
		c-4-108-3-116,11-99c15,18,16,0,15-205c0-226-5-245-29-111c-7,39-17,72-22,72c-4,0-8-24-9-52c-1-29-5-64-10-78c-5-17-7-8-3,30
		c18,215,24,300,23,330c0,32-1,33-10,11c-5-13-17-56-26-95s-18-66-20-59c-8,21,69,373,81,373C2595,4110,2595,4057,2593,3993z
		 M3245,4025c128-126,293-244,390-281c61-23,251-26,332-6c32,9,99,44,169,88c64,41,118,73,120,71s-26-28-61-58c-35-29-60-55-55-57
		c19-7,141,54,239,119c58,38,107,67,110,64c2-3-10-73-28-156s-31-153-28-155c3-3,17,27,33,67c15,39,30,67,31,62c2-6-13-86-33-179
		c-34-160-110-394-137-422c-7-6-58-32-112-57l-100-46l95,2c84,2,95,0,98-16c3-15,6-14,16,6c8,16,32,31,71,46c33,12,64,22,68,22
		c5,1-6-20-25-46c-47-66-51-73-38-73c5,0,38,36,73,80l62,79l2-42c2-23,6-67,9-97l7-55l13,86c13,87,65,262,72,241c2-6-2-53-8-104
		s-13-120-16-153c-6-79,10-45,27,58c7,43,16,77,20,77s6-33,4-74c-2-65-8-86-46-162c-50-100-87-130-193-159c-93-25-624-16-771,13
		c-200,40-328,94-403,170c-57,59-152,205-188,288l-27,64l29,112c20,79,39,128,62,163c19,28,43,67,54,88c11,22,22,37,24,34
		c3-3,9-42,13-88c8-83,8-83,10,53c1,123-18,278-45,371C3176,4089,3184,4084,3245,4025z M4669,3967c-15-152-8-169,25-62
		c15,50,33,108,41,130l13,40l2-40l1-40l14,30c12,26,13-14,14-314c1-189-1-342-4-339s-12,58-20,124c-25,202-38,270-46,248
		c-4-10-8-46-9-79l-2-60l-12,50c-11,45-13,48-23,30c-6-12-27-76-47-144s-38-127-42-130c-3-3-3,32,1,78c9,103-3,105-59,8
		c-21-37-41-66-43-63c-4,4,115,517,122,524c2,2,1-33-2-77c-9-125,11-100,48,59c18,77,34,138,36,137C4679,4075,4675,4025,4669,3967z
		 M2687,3885c-4-41-3-64,3-60s10-67,10-192c1-213,7-245,54-308c15-19,22-35,17-35c-19,0-61,75-88,155c-22,69-26,98-27,210
		c-1,117,18,295,32,295C2691,3950,2690,3921,2687,3885z M2480,3562c6-25,6-32-1-25c-18,18-29,85-27,178l1,90l8-104
		C2466,3644,2474,3581,2480,3562z M2354,3554c30-33,87-87,127-120l72-58l-31-13c-61-25-307-62-450-67l-142-6l31,63
		c54,107,139,229,212,305l70,72l28-58C2286,3641,2324,3587,2354,3554z M4472,3303c-24-33-72-80-72-70c0,8,80,97,87,97
		C4489,3330,4482,3318,4472,3303z M2604,2653c-15-38-84-223-154-413c-206-555-373-970-391-970c-12,0-11,59,2,122
		c16,79,78,294,106,368c47,125,444,960,457,960C2627,2720,2618,2690,2604,2653z M1974,1309c-43-201-73-317-85-325c-5-3-9,32-9,78
		c0,66,6,99,29,163c62,172,94,255,97,252C2008,1475,1994,1400,1974,1309z"/>
	<path d="M3631,4671c-27-18-4-40,41-39h42l-27,24C3656,4682,3651,4684,3631,4671z"/>
	<path d="M3843,4668c-13-6-23-14-23-18c0-12,80-21,97-12c13,8,12,11-8,26C3882,4682,3874,4683,3843,4668z"/>
	<path d="M3655,4436c-16-8-54-34-83-60c-29-25-66-53-83-63c-16-10-28-20-26-23c1-3,15-31,29-62c30-64,63-100,123-131
		c32-17,58-21,130-22c86,0,96,2,169,38c67,33,82,46,112,94c20,30,40,69,46,86c6,18,15,36,19,42c15,15,10,25-11,25
		c-11,0-57,18-102,41c-71,35-88,40-125,35c-24-3-57-12-73-21c-18-9-31-11-35-5c-3,6,0,10,7,11c14,1-41,28-57,28
		C3690,4449,3672,4443,3655,4436z M3974,4357c15-11,15-14,0-35c-11-16-23-22-36-19c-11,3-35-4-54-15c-29-17-40-19-60-10
		c-17,8-32,8-51,1c-49-18-173,10-173,40c0,20,56,32,129,26c54-4,85-1,106,9C3873,4371,3952,4373,3974,4357z M4028,4248
		c-4-12-89-46-118-47c-8-1,8,12,35,29C3997,4260,4035,4269,4028,4248z"/>
</g>
</svg>
